<?xml version="1.0" standalone="no"?>
<!DOCTYPE svg PUBLIC "-//W3C//DTD SVG 20010904//EN"
 "http://www.w3.org/TR/2001/REC-SVG-20010904/DTD/svg10.dtd">
<svg version="1.0" xmlns="http://www.w3.org/2000/svg"
 width="1024.000000pt" height="1024.000000pt" viewBox="0 0 1024.000000 1024.000000"
 preserveAspectRatio="xMidYMid meet">
<metadata>
Created by potrace 1.11, written by Peter Selinger 2001-2013
</metadata>
<g transform="translate(0.000000,1024.000000) scale(0.100000,-0.100000)"
fill="#000000" stroke="none">
<path d="M0 5120 l0 -5120 5120 0 5120 0 0 5120 0 5120 -2507 -1 c-1380 -1
-2461 -5 -2403 -10 119 -9 189 -20 340 -56 426 -100 744 -323 914 -644 42 -78
70 -148 78 -193 3 -18 15 -19 243 -21 240 -2 298 -8 475 -49 271 -64 518 -220
696 -441 99 -123 195 -299 258 -475 21 -58 41 -116 46 -130 9 -23 43 -168 69
-285 18 -82 46 -301 62 -470 12 -137 28 -596 28 -850 l1 -190 73 -75 c113
-116 210 -274 252 -410 9 -30 21 -66 25 -80 38 -113 39 -397 1 -535 -28 -101
-97 -248 -155 -329 -49 -69 -159 -184 -226 -237 -60 -46 -156 -109 -168 -109
-6 0 -12 -3 -14 -7 -3 -8 -112 -63 -159 -82 -18 -7 -32 -30 -58 -98 -33 -87
-51 -128 -97 -231 -13 -29 -24 -55 -24 -57 0 -17 -266 -553 -304 -614 -14 -22
-26 -43 -26 -46 0 -3 -16 -31 -35 -61 -19 -30 -35 -57 -35 -59 0 -6 -122 -194
-200 -308 -25 -37 -119 -166 -135 -184 -8 -10 -38 -47 -66 -83 -162 -205 -403
-439 -609 -591 -57 -43 -200 -139 -206 -139 -3 0 -24 -13 -47 -28 -52 -36
-258 -139 -352 -176 -313 -126 -592 -179 -935 -178 -220 0 -297 8 -510 52 -98
20 -337 94 -405 124 -16 8 -52 24 -80 36 -78 34 -205 100 -263 137 -29 18 -54
33 -57 33 -5 0 -152 100 -205 139 -154 114 -357 299 -477 433 -100 113 -268
320 -319 394 -45 63 -170 250 -184 275 -8 14 -40 68 -72 120 -159 265 -336
627 -481 981 -29 70 -58 128 -65 128 -22 0 -218 106 -289 156 -94 67 -240 215
-295 299 -119 184 -177 373 -178 577 0 85 6 125 36 258 40 174 136 343 274
485 l79 80 5 350 c5 384 13 491 60 785 49 303 149 642 269 905 174 383 437
746 710 981 146 125 144 123 202 165 322 233 656 389 1074 501 235 63 551 114
796 127 77 5 -941 9 -2262 10 l-2403 1 0 -5120z m3430 -3449 c69 -27 190 -74
270 -105 80 -32 163 -65 185 -75 22 -10 51 -22 65 -26 14 -4 39 -13 55 -21 17
-7 107 -43 200 -80 94 -36 188 -74 210 -84 22 -10 50 -21 63 -24 l22 -7 0
-293 0 -293 -52 -21 c-29 -12 -114 -46 -188 -77 -74 -30 -171 -70 -215 -87
-44 -17 -84 -34 -90 -38 -5 -4 -28 -13 -50 -20 -22 -7 -67 -25 -100 -40 -33
-15 -71 -31 -85 -35 -14 -4 -43 -15 -65 -25 -22 -10 -83 -34 -135 -55 -52 -20
-124 -50 -159 -67 -121 -55 -193 -44 -238 37 l-23 40 0 640 c0 573 2 644 17
685 19 53 37 76 78 101 48 30 98 23 235 -30z m3467 28 c18 -12 45 -37 58 -57
l25 -37 0 -658 c0 -714 1 -701 -55 -753 -46 -43 -85 -41 -204 6 -58 24 -119
49 -136 56 -16 7 -82 34 -145 59 -63 26 -128 52 -145 60 -16 7 -73 30 -125 50
-52 20 -108 43 -125 50 -16 8 -93 39 -170 70 -77 31 -173 70 -213 87 l-72 30
2 295 3 294 140 55 c77 30 149 59 160 64 11 5 52 21 90 35 39 14 84 32 100 40
17 7 107 43 200 80 94 36 184 72 202 80 17 8 34 15 38 15 4 0 23 7 43 16 21 9
46 20 57 25 142 62 216 72 272 38z m-1572 -398 c54 -24 92 -71 100 -124 3 -23
5 -150 3 -283 l-3 -241 -27 -35 c-52 -67 -74 -73 -338 -76 -271 -4 -303 2
-354 59 -53 58 -58 92 -54 358 3 216 5 238 23 266 60 89 80 94 370 94 212 1
245 -2 280 -18z"/>
<path d="M6591 8550 c-2 -116 -44 -312 -90 -421 -112 -267 -331 -444 -654
-528 -68 -17 -112 -26 -252 -50 -88 -15 -461 -29 -955 -36 -408 -5 -495 -10
-695 -36 -232 -30 -410 -79 -569 -157 -288 -140 -490 -391 -579 -719 -23 -83
-32 -123 -58 -268 -5 -33 -13 -163 -16 -289 l-6 -228 -71 5 c-39 3 -138 13
-221 21 -172 18 -272 11 -374 -26 -90 -32 -102 -55 -104 -195 -2 -103 0 -111
31 -178 43 -91 117 -168 204 -210 55 -26 84 -34 160 -39 167 -12 189 -17 198
-40 5 -12 32 -82 60 -156 94 -248 120 -311 180 -444 11 -25 20 -47 20 -50 0
-6 84 -184 142 -301 54 -108 112 -216 141 -262 15 -24 27 -45 27 -48 0 -5 117
-198 159 -260 173 -262 383 -505 601 -695 81 -72 81 -71 220 -164 176 -116
347 -194 522 -235 231 -54 386 -69 559 -52 362 35 637 135 911 333 105 76 122
92 304 273 125 125 201 211 286 325 63 85 121 166 128 180 7 14 16 27 20 30 6
4 126 200 156 255 146 262 261 498 354 725 28 69 58 141 67 160 17 40 94 244
128 340 l22 65 54 7 c30 4 103 11 162 17 177 16 277 74 339 200 33 66 33 67
33 213 0 176 -6 190 -98 218 -129 40 -217 37 -532 -20 -27 -5 -69 -12 -92 -15
l-43 -7 0 178 c0 572 -72 901 -248 1143 -26 35 -56 76 -67 91 -112 153 -197
313 -259 487 -57 159 -131 464 -156 643 -20 144 -29 205 -39 245 -9 39 -9 38
-10 -25z"/>
</g>
</svg>
